<?xml version="1.0" encoding="UTF-8"?>
<!DOCTYPE svg PUBLIC "-//W3C//DTD SVG 1.1//EN" "http://www.w3.org/Graphics/SVG/1.1/DTD/svg11.dtd">
<!-- Creator: CorelDRAW 2021 (64 Bit) -->
<svg xmlns="http://www.w3.org/2000/svg" xml:space="preserve" width="2480px" height="3508px" version="1.1" style="shape-rendering:geometricPrecision; text-rendering:geometricPrecision; image-rendering:optimizeQuality; fill-rule:evenodd; clip-rule:evenodd"
viewBox="0 0 2480 3507.43"
 xmlns:xlink="http://www.w3.org/1999/xlink"
 xmlns:xodm="http://www.corel.com/coreldraw/odm/2003">
 <defs>
  <style type="text/css">
   <![CDATA[
    .fil0 {fill:#FEFEFE}
   ]]>
  </style>
 </defs>
 <g id="Camada_x0020_1">
  <metadata id="CorelCorpID_0Corel-Layer"/>
  <g>
   <path class="fil0" d="M461.91 1753.78c0,429.26 347.99,777.24 777.25,777.24 429.26,0 777.24,-347.98 777.24,-777.24 0,-429.26 -347.98,-777.25 -777.24,-777.25 -161.75,0 -311.95,49.41 -436.35,133.95l0 432.77c78.33,-162.06 244.29,-273.84 436.35,-273.84 267.51,0 484.37,216.86 484.37,484.37 0,267.51 -216.86,484.37 -484.37,484.37 -267.51,0 -484.37,-216.86 -484.37,-484.37l0 -1728.63 -292.88 0 0 1728.63zm292.88 675.95l0 1052.67 -292.88 0 0 -1432.5 292.88 379.83zm-292.88 -379.83c58.57,153.64 161.39,285.44 292.88,379.83l-292.88 -379.83z"/>
  </g>
 </g>
</svg>
