<?xml version="1.0" encoding="UTF-8"?>
<!DOCTYPE svg PUBLIC "-//W3C//DTD SVG 1.1//EN" "http://www.w3.org/Graphics/SVG/1.1/DTD/svg11.dtd">
<!-- Creator: CorelDRAW 2021 (64 Bit) -->
<svg xmlns="http://www.w3.org/2000/svg" xml:space="preserve" width="2480px" height="3508px" version="1.1" style="shape-rendering:geometricPrecision; text-rendering:geometricPrecision; image-rendering:optimizeQuality; fill-rule:evenodd; clip-rule:evenodd"
viewBox="0 0 2480 3507.43"
 xmlns:xlink="http://www.w3.org/1999/xlink"
 xmlns:xodm="http://www.corel.com/coreldraw/odm/2003">
 <defs>
  <style type="text/css">
   <![CDATA[
    .fil0 {fill:#FEFEFE}
   ]]>
  </style>
 </defs>
 <g id="Camada_x0020_1">
  <metadata id="CorelCorpID_0Corel-Layer"/>
  <g id="_2187418969248">
   <polygon class="fil0" points="1633.09,3164.09 1869.8,3164.09 1869.8,3496.43 1633.09,3496.43 "/>
   <polygon class="fil0" points="1263.77,3164.09 1500.48,3164.09 1500.48,3496.43 1263.77,3496.43 "/>
   <polygon class="fil0" points="657.77,3164.09 1131.17,3164.09 1131.17,3496.43 657.77,3496.43 "/>
   <polygon class="fil0" points="364.31,3232.4 2114.01,3232.4 2114.01,2795.03 364.31,2795.03 "/>
   <polygon class="fil0" points="527.66,2740.66 1979.82,2740.66 1979.82,2476.63 527.66,2476.63 "/>
   <polygon class="fil0" points="364.31,2422.27 1979.82,2422.27 1979.82,2158.24 364.31,2158.24 "/>
   <polygon class="fil0" points="527.66,1012.9 1979.82,1012.9 1979.82,2103.87 527.66,2103.87 "/>
   <polygon class="fil0" points="364.31,958.53 1979.82,958.53 1979.82,694.5 364.31,694.5 "/>
   <path class="fil0" d="M923.23 11.13l661.02 0c217.56,0 395.57,178 395.57,395.57l0 233.44 -1452.16 0 0 -233.44c0,-217.57 178.01,-395.57 395.57,-395.57z"/>
  </g>
 </g>
</svg>
