<?xml version="1.0" encoding="UTF-8"?>
<!DOCTYPE svg PUBLIC "-//W3C//DTD SVG 1.1//EN" "http://www.w3.org/Graphics/SVG/1.1/DTD/svg11.dtd">
<!-- Creator: CorelDRAW 2021 (64 Bit) -->
<svg xmlns="http://www.w3.org/2000/svg" xml:space="preserve" width="2480px" height="3508px" version="1.1" style="shape-rendering:geometricPrecision; text-rendering:geometricPrecision; image-rendering:optimizeQuality; fill-rule:evenodd; clip-rule:evenodd"
viewBox="0 0 2480 3507.43"
 xmlns:xlink="http://www.w3.org/1999/xlink"
 xmlns:xodm="http://www.corel.com/coreldraw/odm/2003">
 <defs>
  <style type="text/css">
   <![CDATA[
    .fil0 {fill:#FEFEFE}
   ]]>
  </style>
 </defs>
 <g id="Camada_x0020_1">
  <metadata id="CorelCorpID_0Corel-Layer"/>
  <g id="_2187562085760">
   <rect class="fil0" x="2013.96" y="482.66" width="454.35" height="645.56"/>
   <path class="fil0" d="M544.57 81.24l1603.56 0c176.11,0 320.19,144.08 320.19,320.19l0 0.19 -543.36 -2.05 0 811.74 543.36 -0.77 0 765.16 -543.36 1.12 0 811.75 543.36 -3.37 0 1.96c0,176.11 -144.08,320.19 -320.19,320.19l-1603.56 0c-176.1,0 -320.18,-144.08 -320.18,-320.19l0 -2385.73c0,-176.11 144.08,-320.19 320.18,-320.19zm1539.87 1315.38c88.08,0 159.48,71.4 159.48,159.48 0,88.08 -71.4,159.48 -159.48,159.48 -88.08,0 -159.48,-71.4 -159.48,-159.48 0,-88.08 71.4,-159.48 159.48,-159.48z"/>
   <rect class="fil0" x="690.31" y="3107.35" width="454.35" height="318.96"/>
   <rect class="fil0" x="1316.11" y="3107.35" width="454.35" height="318.96"/>
   <rect class="fil0" x="10.01" y="675.02" width="214.39" height="485.67"/>
   <rect class="fil0" x="10.01" y="1951.51" width="214.39" height="485.67"/>
   <rect class="fil0" x="2013.96" y="2057.45" width="454.35" height="645.56"/>
  </g>
 </g>
</svg>
