<?xml version="1.0" encoding="UTF-8"?>
<!DOCTYPE svg PUBLIC "-//W3C//DTD SVG 1.1//EN" "http://www.w3.org/Graphics/SVG/1.1/DTD/svg11.dtd">
<!-- Creator: CorelDRAW 2021 (64 Bit) -->
<svg xmlns="http://www.w3.org/2000/svg" xml:space="preserve" width="2480px" height="3508px" version="1.1" style="shape-rendering:geometricPrecision; text-rendering:geometricPrecision; image-rendering:optimizeQuality; fill-rule:evenodd; clip-rule:evenodd"
viewBox="0 0 2480 3507.43"
 xmlns:xlink="http://www.w3.org/1999/xlink"
 xmlns:xodm="http://www.corel.com/coreldraw/odm/2003">
 <defs>
  <style type="text/css">
   <![CDATA[
    .fil0 {fill:#FEFEFE}
   ]]>
  </style>
 </defs>
 <g id="Camada_x0020_1">
  <metadata id="CorelCorpID_0Corel-Layer"/>
  <g id="_2187473285952">
   <polygon class="fil0" points="768.06,14.5 959.99,14.5 1133.04,3493.06 666.27,3493.06 "/>
   <rect class="fil0" x="148.38" y="225.52" width="1454.71" height="104.4"/>
   <path class="fil0" d="M1421.51 111.48l14.41 0c28.95,0 52.64,23.69 52.64,52.64l0 61.41 -119.69 0 0 -61.41c0,-28.95 23.69,-52.64 52.64,-52.64z"/>
   <path class="fil0" d="M363.39 111.48l14.41 0c28.95,0 52.64,23.69 52.64,52.64l0 61.41 -119.69 0 0 -61.41c0,-28.95 23.69,-52.64 52.64,-52.64z"/>
   <path class="fil0" d="M973.09 1078.62c231.33,-323.75 524.52,-528.63 882.54,-608.96l28.7 41.6c-326.19,56.65 -619.23,264.95 -882.54,608.95l-28.7 -41.59z"/>
   <path class="fil0" d="M2106.21 469.66l-243.05 0 0 240.11 466.77 0 0 -16.39c0,-123.04 -100.67,-223.72 -223.72,-223.72z"/>
  </g>
 </g>
</svg>
